<?xml version="1.0" standalone="no"?>
<!DOCTYPE svg PUBLIC "-//W3C//DTD SVG 20010904//EN"
 "http://www.w3.org/TR/2001/REC-SVG-20010904/DTD/svg10.dtd">
<svg version="1.0" xmlns="http://www.w3.org/2000/svg"
 width="225.000000pt" height="225.000000pt" viewBox="0 0 225.000000 225.000000"
 preserveAspectRatio="xMidYMid meet">
<metadata>
Created by potrace 1.16, written by Peter Selinger 2001-2019
</metadata>
<g transform="translate(0.000000,225.000000) scale(0.100000,-0.100000)"
fill="#000000" stroke="none">
<path d="M1483 2226 c-40 -13 -95 -38 -123 -56 -118 -76 -221 -231 -239 -360
-5 -36 -7 -67 -5 -69 8 -9 135 22 184 46 67 32 165 129 203 200 43 80 84 264
60 263 -5 -1 -41 -11 -80 -24z"/>
<path d="M588 1731 c-191 -61 -340 -243 -398 -483 -38 -157 -23 -390 36 -588
79 -262 278 -537 449 -621 61 -30 78 -34 145 -33 62 0 96 8 194 42 152 54 182
54 328 1 99 -36 124 -41 198 -41 122 -1 184 25 269 111 83 83 158 192 216 313
65 137 65 139 8 162 -111 45 -216 196 -249 356 -25 125 -8 235 56 360 28 54
108 141 155 166 19 10 35 22 35 26 0 4 -21 35 -47 70 -95 125 -224 184 -381
176 -73 -4 -107 -13 -212 -53 -112 -43 -134 -48 -210 -49 -80 -1 -90 2 -175
41 -49 23 -108 46 -130 52 -64 17 -221 13 -287 -8z"/>
</g>
</svg>
